<svg aria-hidden="true" style="width:0;height:0;position:absolute;overflow:hidden" xmlns="http://www.w3.org/2000/svg"><defs><symbol id="icon-close" viewBox="0 0 28 28"><path d="M21 7 7 21M7 7l14 14" stroke="#111" stroke-width="3" stroke-linecap="round" stroke-linejoin="round"/></symbol><symbol id="icon-bag" viewBox="0 0 20 20"><path d="M15.833 5.833h-2.5V5a3.333 3.333 0 0 0-6.667 0v.833h-2.5a.833.833 0 0 0-.833.834v9.166a2.5 2.5 0 0 0 2.5 2.5h8.333a2.5 2.5 0 0 0 2.5-2.5V6.667a.834.834 0 0 0-.833-.834ZM8.333 5a1.667 1.667 0 1 1 3.333 0v.833H8.333V5ZM15 15.833a.833.833 0 0 1-.834.834H5.833A.833.833 0 0 1 5 15.833V7.5h1.666v.833a.833.833 0 1 0 1.667 0V7.5h3.333v.833a.833.833 0 1 0 1.667 0V7.5H15v8.333Z"/></symbol><symbol id="icon-bookshelf" viewBox="0 0 176 32"><path d="M22.176 8.533c0-4.731-3.497-7.406-9.545-7.406H0v29.417h13.33c6.089 0 9.998-2.921 9.998-8.599 0-4.402-2.633-6.665-5.719-7.2v-.082c2.427-.823 4.567-2.51 4.567-6.13zm-17.28 4.772V5.282h7.858c2.921 0 4.526 1.44 4.526 4.032s-1.317 3.991-4.814 3.991h-7.57zm0 3.662h8.599c3.086 0 4.937 1.687 4.937 4.69 0 2.757-1.275 4.731-5.472 4.731H4.896v-9.422zM35.89 31.161c-6.583 0-10.574-4.567-10.574-11.109S29.307 8.943 35.89 8.943s10.574 4.567 10.574 11.109-3.991 11.109-10.574 11.109zm0-3.538c4.114 0 6.254-3.25 6.254-7.57 0-4.361-2.139-7.57-6.254-7.57s-6.254 3.209-6.254 7.57c0 4.32 2.139 7.57 6.254 7.57zM58.912 31.161c-6.583 0-10.574-4.567-10.574-11.109S52.329 8.943 58.912 8.943s10.574 4.567 10.574 11.109-3.991 11.109-10.574 11.109zm0-3.538c4.114 0 6.254-3.25 6.254-7.57 0-4.361-2.139-7.57-6.254-7.57s-6.254 3.209-6.254 7.57c0 4.32 2.139 7.57 6.254 7.57zM72.472 1.127v29.417h4.32v-7.611l2.921-2.757 6.624 10.368h5.184l-8.846-13.207 7.982-7.817H85.35l-8.558 8.434V1.127h-4.32zM101.935 17.831c-3.045-.699-5.39-.864-5.39-3.003 0-1.481 1.399-2.469 3.991-2.469 3.374 0 4.197 1.687 4.485 3.333h4.197c-.288-3.662-3.003-6.747-8.722-6.747-5.266 0-8.311 2.757-8.311 6.213 0 4.773 4.526 5.431 7.858 6.213 3.086.741 5.595.946 5.595 3.579 0 1.317-1.275 2.798-4.279 2.798-4.443 0-5.431-1.934-5.637-4.197h-4.197c.206 4.443 3.127 7.611 9.915 7.611 5.102 0 8.558-2.51 8.558-6.542 0-5.019-4.197-5.883-8.064-6.789zM124.123 8.944c-3.538 0-5.719 1.646-6.83 3.291h-.082V1.126h-4.32v29.417h4.32V17.748c0-3.127 2.263-5.143 5.431-5.143 3.003 0 4.197 1.81 4.197 4.649v13.289h4.361V16.02c0-4.814-3.086-7.077-7.077-7.077zM144.448 27.623c-3.826 0-6.089-2.921-6.089-6.459h16.128c0-7.488-3.333-12.219-10.121-12.219-6.336 0-10.327 4.279-10.327 11.109 0 6.583 3.991 11.109 10.533 11.109 5.39 0 8.517-3.045 9.586-7.035h-4.32c-.37 1.275-1.81 3.497-5.39 3.497zm-.082-15.264c3.497 0 5.801 2.345 5.801 5.595h-11.808c0-3.25 2.51-5.595 6.007-5.595zM157.531 1.127v29.417h4.361V1.127h-4.361zM176.003 4.665V1.127a15.12 15.12 0 0 0-2.88-.288c-3.456 0-5.349 1.563-5.349 6.007V9.52h-3.003v3.538h3.003v17.486h4.361V13.058h3.867V9.52h-3.867V7.216c0-2.386 1.07-2.674 3.867-2.551z"/></symbol><symbol id="icon-logo" viewBox="0 0 32 32"><path fill="#f6f6f6" style="fill:var(--color1,#f6f6f6)" d="m0 0 16.343 16.171L32 32V0H0z"/><path fill="#f6f6f6" style="fill:var(--color1,#f6f6f6)" d="M4.457 4.229 16.4 16.058l11.257 11.486h-23.2V4.23z"/><path fill="#4f2ee8" style="fill:var(--color2,#4f2ee8)" d="M27.733 27.618 15.79 15.789 4.533 4.303h23.2v23.314z"/><path fill="#4f2ee8" style="fill:var(--color2,#4f2ee8)" d="m9.257 9.029 13.6 13.6h-13.6v-13.6z"/><path fill="#f6f6f6" style="fill:var(--color1,#f6f6f6)" d="m9.257 9.029 13.6 13.6v-13.6h-13.6z"/></symbol><symbol id="icon-arrow-right" viewBox="0 0 20 20"><path d="M3.333 10h13.333m0 0-5-5m5 5-5 5" stroke="#EAC645" stroke-width="2" stroke-linecap="round" stroke-linejoin="round"/></symbol><symbol id="icon-trash" viewBox="0 0 16 16"><path d="M6 2h4M2 4h12m-1.333 0-.468 7.013c-.07 1.052-.105 1.578-.332 1.977a2 2 0 0 1-.866.81c-.413.2-.94.2-1.995.2H6.994c-1.055 0-1.582 0-1.995-.2a2 2 0 0 1-.866-.81c-.227-.399-.262-.925-.332-1.977L3.333 4m3.334 3v3.333M9.333 7v3.333" stroke="#fff" stroke-linecap="round" stroke-linejoin="round"/></symbol><symbol id="icon-arrow-small-left" viewBox="0 0 22 22"><path d="M9.716 11.65a.917.917 0 0 1 0-1.3l4.207-4.2a.916.916 0 1 0-1.292-1.3L8.423 9.056a2.75 2.75 0 0 0 0 3.886l4.208 4.208a.917.917 0 0 0 1.292-1.302l-4.207-4.198Z"/></symbol><symbol id="icon-support-ukraine" viewBox="0 0 20 32"><path d="M9.005 30.888a8.64 8.64 0 0 1-3.414-5.351H0V2.42c2.991 1.443 5.153 4.6 5.388 7.876l.845 6.493-.407-.045c-.893 0-1.676.812-1.676 1.608 0 .752.595 1.383 1.379 1.548l1.018.226c1.675-3.051 2.63-6.042 2.63-8.973 0-2.646-.36-5.291-.422-7.997 0-1.202.485-2.3 1.253-3.156.783.857 1.253 1.954 1.253 3.156 0 2.706-.423 5.351-.423 7.997 0 2.93.955 5.922 2.631 8.973l1.018-.226c.783-.165 1.378-.811 1.378-1.548 0-.811-.783-1.608-1.675-1.608l-.423.06.845-6.493C15.035 7.034 17.01 3.863 20 2.435v23.117h-5.576c-.422 2.18-1.613 4.148-3.414 5.35-.423.286-.783.632-1.018 1.098-.22-.466-.58-.812-.987-1.112ZM2.647 17.556c.235-.857.893-1.609 1.738-2.075l-.658-5.35a8.286 8.286 0 0 0-2.036-4.374V17.54h.956v.015Zm2.819 6.373c0-.812.125-1.548.298-2.3l-.784-.18c-1.143-.346-2.036-1.203-2.333-2.3H1.69v4.78h3.775Zm3.712 0c0-.977-.783-1.834-1.801-1.954-.173.63-.298 1.262-.298 1.954h2.099Zm0 1.623H7.314c.298 1.262.955 2.42 1.864 3.397v-3.397Zm2.63-5.005c-.72-1.263-1.377-2.585-1.8-3.968-.423 1.383-1.08 2.705-1.801 3.968.72.165 1.315.631 1.8 1.157.486-.526 1.082-.992 1.802-1.157Zm1.144 3.382c0-.692-.125-1.323-.297-1.954-1.018.12-1.801.977-1.801 1.954h2.098Zm-.235 1.623h-1.863v3.397c.908-.992 1.566-2.135 1.863-3.397Zm5.623-1.623v-4.78h-.956c-.297 1.097-1.206 1.954-2.333 2.3l-.783.18c.172.752.297 1.488.297 2.3h3.775Zm0-6.373v-11.8c-1.08 1.203-1.864 2.706-2.036 4.375l-.658 5.35c.846.466 1.504 1.203 1.738 2.075h.956Z" fill="#fff"/></symbol><symbol id="icon-arrow-back" viewBox="0 0 24 24"><path d="m3.375 14.7 8.4-8.425c.1-.1.208-.17.325-.212A1.1 1.1 0 0 1 12.475 6a1.1 1.1 0 0 1 .375.063.871.871 0 0 1 .325.212L21.6 14.7c.233.233.35.525.35.875s-.125.65-.375.9a1.2 1.2 0 0 1-.875.375 1.2 1.2 0 0 1-.875-.375l-7.35-7.35-7.35 7.35c-.233.233-.52.35-.862.35-.342 0-.638-.125-.888-.375A1.2 1.2 0 0 1 3 15.575a1.2 1.2 0 0 1 .375-.875Z" fill="#fff"/></symbol><symbol id="icon-caret-down" viewBox="0 0 23 26"><path d="M4.792 9.75h13.416l-6.03 6.817a.906.906 0 0 1-.678.318.906.906 0 0 1-.678-.318L4.792 9.75Z" fill="#fff"/></symbol><symbol id="icon-user" viewBox="0 0 19 19"><path d="M3.167 17.417a6.333 6.333 0 1 1 12.666 0H3.167ZM9.5 10.292a4.749 4.749 0 0 1-4.75-4.75A4.749 4.749 0 0 1 9.5.792a4.749 4.749 0 0 1 4.75 4.75 4.749 4.749 0 0 1-4.75 4.75Z" fill="#4F2EE8"/><symbol id="icon-lock" viewBox="0 0 32 32"><path stroke-linecap="round" stroke-linejoin="round" stroke-width="2.667" d="M23.778 14.444V9.777c0-4.296-3.482-7.778-7.778-7.778S8.222 5.481 8.222 9.777v4.667M9.467 30h13.067c2.614 0 3.92 0 4.919-.509a4.662 4.662 0 0 0 2.039-2.039c.509-.998.509-2.305.509-4.919v-.622c0-2.614 0-3.92-.509-4.919a4.662 4.662 0 0 0-2.039-2.039c-.998-.509-2.305-.509-4.919-.509H9.467c-2.614 0-3.92 0-4.919.509a4.662 4.662 0 0 0-2.039 2.039C2 17.99 2 19.297 2 21.911v.622c0 2.614 0 3.92.509 4.919a4.662 4.662 0 0 0 2.039 2.039C5.546 30 6.853 30 9.467 30z"/></symbol><symbol id="icon-mail" viewBox="0 0 32 32"><path stroke-linecap="round" stroke-linejoin="round" stroke-width="2.286" d="m28.666 24-8.857-8m-7.619 0-8.857 8M2.667 9.333l10.887 7.621c.882.617 1.322.926 1.802 1.045.423.106.866.106 1.29 0 .479-.12.92-.428 1.802-1.045l10.887-7.621M9.067 26.667h13.867c2.24 0 3.36 0 4.216-.436a3.996 3.996 0 0 0 1.748-1.748c.436-.856.436-1.976.436-4.216v-8.533c0-2.24 0-3.36-.436-4.216A3.991 3.991 0 0 0 27.15 5.77c-.856-.436-1.976-.436-4.216-.436H9.067c-2.24 0-3.36 0-4.216.436a3.991 3.991 0 0 0-1.748 1.748c-.436.856-.436 1.976-.436 4.216v8.533c0 2.24 0 3.36.436 4.216a3.996 3.996 0 0 0 1.748 1.748c.856.436 1.976.436 4.216.436z"/></symbol></symbol></defs></svg>