<svg aria-hidden="true" style="position: absolute; width: 0; height: 0; overflow: hidden;" version="1.1" xmlns="http://www.w3.org/2000/svg" xmlns:xlink="http://www.w3.org/1999/xlink">
<defs>
<symbol id="icon-close" viewBox="0 0 28 28">
  <path d="M21 7L7 21M7 7L21 21" stroke="#111111" stroke-width="3" stroke-linecap="round" stroke-linejoin="round"/>
</symbol>
<symbol id="icon-bag" viewBox="0 0 20 20">
  <path d="M15.833 5.83335H13.333V5.00002C13.333 4.11596 12.9818 3.26812 12.3567 2.643C11.7316 2.01788 10.8837 1.66669 9.99967 1.66669C9.11562 1.66669 8.26777 2.01788 7.64265 2.643C7.01753 3.26812 6.66634 4.11596 6.66634 5.00002V5.83335H4.16634C3.94533 5.83335 3.73337 5.92115 3.57709 6.07743C3.42081 6.23371 3.33301 6.44567 3.33301 6.66669V15.8334C3.33301 16.4964 3.5964 17.1323 4.06524 17.6011C4.53408 18.07 5.16997 18.3334 5.83301 18.3334H14.1663C14.8294 18.3334 15.4653 18.07 15.9341 17.6011C16.4029 17.1323 16.6663 16.4964 16.6663 15.8334V6.66669C16.6663 6.44567 16.5785 6.23371 16.4223 6.07743C16.266 5.92115 16.054 5.83335 15.833 5.83335ZM8.33301 5.00002C8.33301 4.55799 8.5086 4.13407 8.82116 3.82151C9.13372 3.50895 9.55764 3.33335 9.99967 3.33335C10.4417 3.33335 10.8656 3.50895 11.1782 3.82151C11.4907 4.13407 11.6663 4.55799 11.6663 5.00002V5.83335H8.33301V5.00002ZM14.9997 15.8334C14.9997 16.0544 14.9119 16.2663 14.7556 16.4226C14.5993 16.5789 14.3874 16.6667 14.1663 16.6667H5.83301C5.61199 16.6667 5.40003 16.5789 5.24375 16.4226C5.08747 16.2663 4.99967 16.0544 4.99967 15.8334V7.50002H6.66634V8.33335C6.66634 8.55437 6.75414 8.76633 6.91042 8.92261C7.0667 9.07889 7.27866 9.16669 7.49967 9.16669C7.72069 9.16669 7.93265 9.07889 8.08893 8.92261C8.24521 8.76633 8.33301 8.55437 8.33301 8.33335V7.50002H11.6663V8.33335C11.6663 8.55437 11.7541 8.76633 11.9104 8.92261C12.0667 9.07889 12.2787 9.16669 12.4997 9.16669C12.7207 9.16669 12.9326 9.07889 13.0889 8.92261C13.2452 8.76633 13.333 8.55437 13.333 8.33335V7.50002H14.9997V15.8334Z" />
</symbol>
<symbol id="icon-bookshelf" viewBox="0 0 176 32">
<path d="M22.176 8.533c0-4.731-3.497-7.406-9.545-7.406h-12.631v29.417h13.33c6.089 0 9.998-2.921 9.998-8.599 0-4.402-2.633-6.665-5.719-7.2v-0.082c2.427-0.823 4.567-2.51 4.567-6.13zM4.896 13.305v-8.023h7.858c2.921 0 4.526 1.44 4.526 4.032s-1.317 3.991-4.814 3.991h-7.57zM4.896 16.967h8.599c3.086 0 4.937 1.687 4.937 4.69 0 2.757-1.275 4.731-5.472 4.731h-8.064v-9.422z"></path>
<path d="M35.89 31.161c-6.583 0-10.574-4.567-10.574-11.109s3.991-11.109 10.574-11.109c6.583 0 10.574 4.567 10.574 11.109s-3.991 11.109-10.574 11.109zM35.89 27.623c4.114 0 6.254-3.25 6.254-7.57 0-4.361-2.139-7.57-6.254-7.57s-6.254 3.209-6.254 7.57c0 4.32 2.139 7.57 6.254 7.57z"></path>
<path d="M58.912 31.161c-6.583 0-10.574-4.567-10.574-11.109s3.991-11.109 10.574-11.109c6.583 0 10.574 4.567 10.574 11.109s-3.991 11.109-10.574 11.109zM58.912 27.623c4.114 0 6.254-3.25 6.254-7.57 0-4.361-2.139-7.57-6.254-7.57s-6.254 3.209-6.254 7.57c0 4.32 2.139 7.57 6.254 7.57z"></path>
<path d="M72.472 1.127v29.417h4.32v-7.611l2.921-2.757 6.624 10.368h5.184l-8.846-13.207 7.982-7.817h-5.307l-8.558 8.434v-16.827h-4.32z"></path>
<path d="M101.935 17.831c-3.045-0.699-5.39-0.864-5.39-3.003 0-1.481 1.399-2.469 3.991-2.469 3.374 0 4.197 1.687 4.485 3.333h4.197c-0.288-3.662-3.003-6.747-8.722-6.747-5.266 0-8.311 2.757-8.311 6.213 0 4.773 4.526 5.431 7.858 6.213 3.086 0.741 5.595 0.946 5.595 3.579 0 1.317-1.275 2.798-4.279 2.798-4.443 0-5.431-1.934-5.637-4.197h-4.197c0.206 4.443 3.127 7.611 9.915 7.611 5.102 0 8.558-2.51 8.558-6.542 0-5.019-4.197-5.883-8.064-6.789z"></path>
<path d="M124.123 8.944c-3.538 0-5.719 1.646-6.83 3.291h-0.082v-11.109h-4.32v29.417h4.32v-12.795c0-3.127 2.263-5.143 5.431-5.143 3.003 0 4.197 1.81 4.197 4.649v13.289h4.361v-14.523c0-4.814-3.086-7.077-7.077-7.077z"></path>
<path d="M144.448 27.623c-3.826 0-6.089-2.921-6.089-6.459h16.128c0-7.488-3.333-12.219-10.121-12.219-6.336 0-10.327 4.279-10.327 11.109 0 6.583 3.991 11.109 10.533 11.109 5.39 0 8.517-3.045 9.586-7.035h-4.32c-0.37 1.275-1.81 3.497-5.39 3.497zM144.366 12.359c3.497 0 5.801 2.345 5.801 5.595h-11.808c0-3.25 2.51-5.595 6.007-5.595z"></path>
<path d="M157.531 1.127v29.417h4.361v-29.417h-4.361z"></path>
<path d="M176.003 4.665v-3.538c-0.864-0.165-1.81-0.288-2.88-0.288-3.456 0-5.349 1.563-5.349 6.007v2.674h-3.003v3.538h3.003v17.486h4.361v-17.486h3.867v-3.538h-3.867v-2.304c0-2.386 1.070-2.674 3.867-2.551z"></path>
</symbol>
<symbol id="icon-logo" viewBox="0 0 32 32">
<path fill="#f6f6f6" style="fill: var(--color1, #f6f6f6)" d="M0 0l16.343 16.171 15.657 15.829v-32h-32z"></path>
<path fill="#f6f6f6" style="fill: var(--color1, #f6f6f6)" d="M4.457 4.229l11.943 11.829 11.257 11.486h-23.2v-23.314z"></path>
<path fill="#4f2ee8" style="fill: var(--color2, #4f2ee8)" d="M27.733 27.618l-11.943-11.829-11.257-11.486h23.2v23.314z"></path>
<path fill="#4f2ee8" style="fill: var(--color2, #4f2ee8)" d="M9.257 9.029l13.6 13.6h-13.6v-13.6z"></path>
<path fill="#f6f6f6" style="fill: var(--color1, #f6f6f6)" d="M9.257 9.029l13.6 13.6v-13.6h-13.6z"></path>
</symbol>
<symbol id ="icon-arrow-right" viewBox="0 0 20 20">
  <path d="M3.33301 10H16.6663M16.6663 10L11.6663 5M16.6663 10L11.6663 15" stroke="#EAC645" stroke-width="2" stroke-linecap="round" stroke-linejoin="round"/>
</symbol>
<symbol id="icon-trash" viewBox="0 0 16 16">
  <path d="M6 2H10M2 4H14M12.6667 4L12.1991 11.0129C12.129 12.065 12.0939 12.5911 11.8667 12.99C11.6666 13.3412 11.3648 13.6235 11.0011 13.7998C10.588 14 10.0607 14 9.00623 14H6.99377C5.93927 14 5.41202 14 4.99889 13.7998C4.63517 13.6235 4.33339 13.3412 4.13332 12.99C3.90607 12.5911 3.871 12.065 3.80086 11.0129L3.33333 4M6.66667 7V10.3333M9.33333 7V10.3333" stroke="white" stroke-linecap="round" stroke-linejoin="round"/>
</symbol>
<symbol id="icon-arrow-small-left" viewBox="0 0 22 22">
<path d="M9.71589 11.6509C9.62997 11.5656 9.56177 11.4643 9.51524 11.3526C9.4687 11.2409 9.44474 11.121 9.44474 11C9.44474 10.879 9.4687 10.7592 9.51524 10.6475C9.56177 10.5358 9.62997 10.4344 9.71589 10.3492L13.9234 6.15086C14.0093 6.06564 14.0775 5.96426 14.124 5.85255C14.1706 5.74085 14.1945 5.62103 14.1945 5.50002C14.1945 5.37901 14.1706 5.2592 14.124 5.14749C14.0775 5.03579 14.0093 4.9344 13.9234 4.84919C13.7516 4.67846 13.5193 4.58263 13.2771 4.58263C13.035 4.58263 12.8026 4.67846 12.6309 4.84919L8.42339 9.05669C7.9084 9.57232 7.61914 10.2713 7.61914 11C7.61914 11.7288 7.9084 12.4277 8.42339 12.9434L12.6309 17.1509C12.8016 17.3202 13.0321 17.4157 13.2726 17.4167C13.3932 17.4174 13.5128 17.3943 13.6245 17.3487C13.7362 17.3031 13.8377 17.2358 13.9234 17.1509C14.0093 17.0657 14.0775 16.9643 14.124 16.8526C14.1706 16.7409 14.1945 16.6211 14.1945 16.5C14.1945 16.379 14.1706 16.2592 14.124 16.1475C14.0775 16.0358 14.0093 15.9344 13.9234 15.8492L9.71589 11.6509Z" fill="#B4AFAF"/>
</symbol>
<symbol id="icon-support-ukraine" viewBox="0 0 20 32">
<path d="M9.00548 30.8877C7.26703 29.6252 6.0141 27.7313 5.59123 25.5369H0V2.41992C2.99139 3.86285 5.1527 7.01926 5.38763 10.2959L6.23336 16.7891L5.82615 16.744C4.93344 16.744 4.15035 17.5557 4.15035 18.3523C4.15035 19.1038 4.7455 19.7351 5.52858 19.9004L6.54659 20.1259C8.2224 17.0747 9.17776 14.0836 9.17776 11.1527C9.17776 8.50728 8.81754 5.86191 8.75489 3.15641C8.75489 1.95397 9.24041 0.85674 10.0078 0C10.7909 0.85674 11.2608 1.95397 11.2608 3.15641C11.2608 5.86191 10.8379 8.50728 10.8379 11.1527C10.8379 14.0836 11.7933 17.0747 13.4691 20.1259L14.4871 19.9004C15.2702 19.7351 15.8653 19.0888 15.8653 18.3523C15.8653 17.5406 15.0822 16.744 14.1895 16.744L13.7666 16.8041L14.6124 10.3109C15.0352 7.03429 17.0086 3.86285 20 2.43495V25.5519H14.4244C14.0016 27.7313 12.8113 29.7003 11.0102 30.9028C10.5873 31.1884 10.2271 31.5341 9.99217 32C9.77291 31.5341 9.41269 31.1884 9.00548 30.8877ZM2.64683 17.5557C2.88175 16.6989 3.53955 15.9474 4.38528 15.4814L3.72749 10.1306C3.49256 8.46219 2.77212 6.97417 1.69146 5.75669V17.5406H2.64683V17.5557ZM5.46593 23.9286C5.46593 23.117 5.59123 22.3805 5.76351 21.6289L4.98042 21.4486C3.83712 21.1029 2.9444 20.2461 2.64683 19.1489H1.69146V23.9286H5.46593ZM9.17776 23.9286C9.17776 22.9516 8.39467 22.0949 7.37666 21.9746C7.20438 22.6059 7.07909 23.2372 7.07909 23.9286H9.17776ZM9.17776 25.5519H7.31402C7.61159 26.8145 8.26938 27.9718 9.17776 28.9488V25.5519ZM11.8089 20.5467C11.0885 19.2842 10.4307 17.9615 10.0078 16.5787C9.58496 17.9615 8.92717 19.2842 8.20673 20.5467C8.92717 20.7121 9.52232 21.178 10.0078 21.7041C10.4933 21.178 11.0885 20.7121 11.8089 20.5467ZM12.9522 23.9286C12.9522 23.2372 12.8269 22.6059 12.6547 21.9746C11.6366 22.0949 10.8536 22.9516 10.8536 23.9286H12.9522ZM12.7173 25.5519H10.8536V28.9488C11.7619 27.9568 12.4197 26.8145 12.7173 25.5519ZM18.3399 23.9286V19.1489H17.3845C17.0869 20.2461 16.1785 21.1029 15.0509 21.4486L14.2678 21.6289C14.4401 22.3805 14.5654 23.117 14.5654 23.9286H18.3399ZM18.3399 17.5557V5.75669C17.2592 6.95914 16.4761 8.46219 16.3038 10.1306L15.646 15.4814C16.4918 15.9474 17.1496 16.6839 17.3845 17.5557H18.3399Z" fill="white"/>
</symbol>
<symbol id="icon-arrow-back" viewBox="0 0 24 24">
<path d="M3.37519 14.7L11.7752 6.275C11.8752 6.175 11.9835 6.10433 12.1002 6.063C12.2169 6.021 12.3419 6 12.4752 6C12.6085 6 12.7335 6.021 12.8502 6.063C12.9669 6.10433 13.0752 6.175 13.1752 6.275L21.6002 14.7C21.8335 14.9333 21.9502 15.225 21.9502 15.575C21.9502 15.925 21.8252 16.225 21.5752 16.475C21.3252 16.725 21.0335 16.85 20.7002 16.85C20.3669 16.85 20.0752 16.725 19.8252 16.475L12.4752 9.125L5.12519 16.475C4.89186 16.7083 4.60453 16.825 4.26319 16.825C3.92119 16.825 3.62519 16.7 3.37519 16.45C3.12519 16.2 3.00019 15.9083 3.00019 15.575C3.00019 15.2417 3.12519 14.95 3.37519 14.7Z" fill="white"/>
</symbol>
<symbol id="icon-caret-down" viewBox="0 0 23 26">
<path d="M4.7915 9.75H18.2082L12.1774 16.5674C11.9977 16.7705 11.754 16.8846 11.4998 16.8846C11.2457 16.8846 11.002 16.7705 10.8223 16.5674L4.7915 9.75Z" fill="white"/>
</symbol>
<symbol id="icon-user" viewBox="0 0 19 19">
<path d="M3.16663 17.4166C3.16663 15.7369 3.83389 14.126 5.02162 12.9383C6.20935 11.7506 7.82025 11.0833 9.49996 11.0833C11.1797 11.0833 12.7906 11.7506 13.9783 12.9383C15.166 14.126 15.8333 15.7369 15.8333 17.4166H3.16663ZM9.49996 10.2916C6.87558 10.2916 4.74996 8.166 4.74996 5.54163C4.74996 2.91725 6.87558 0.791626 9.49996 0.791626C12.1243 0.791626 14.25 2.91725 14.25 5.54163C14.25 8.166 12.1243 10.2916 9.49996 10.2916Z" fill="#4F2EE8"/>
<symbol id="icon-lock" viewBox="0 0 32 32">
<path stroke-linecap="round" stroke-linejoin="round" stroke-width="2.667" d="M23.778 14.444V9.777c0-4.296-3.482-7.778-7.778-7.778S8.222 5.481 8.222 9.777v4.667M9.467 30h13.067c2.614 0 3.92 0 4.919-.509a4.662 4.662 0 0 0 2.039-2.039c.509-.998.509-2.305.509-4.919v-.622c0-2.614 0-3.92-.509-4.919a4.662 4.662 0 0 0-2.039-2.039c-.998-.509-2.305-.509-4.919-.509H9.467c-2.614 0-3.92 0-4.919.509a4.662 4.662 0 0 0-2.039 2.039C2 17.99 2 19.297 2 21.911v.622c0 2.614 0 3.92.509 4.919a4.662 4.662 0 0 0 2.039 2.039C5.546 30 6.853 30 9.467 30z"/></symbol>
<symbol id="icon-mail" viewBox="0 0 32 32">
<path stroke-linecap="round" stroke-linejoin="round" stroke-width="2.286" d="m28.666 24-8.857-8m-7.619 0-8.857 8M2.667 9.333l10.887 7.621c.882.617 1.322.926 1.802 1.045.423.106.866.106 1.29 0 .479-.12.92-.428 1.802-1.045l10.887-7.621M9.067 26.667h13.867c2.24 0 3.36 0 4.216-.436a3.996 3.996 0 0 0 1.748-1.748c.436-.856.436-1.976.436-4.216v-8.533c0-2.24 0-3.36-.436-4.216A3.991 3.991 0 0 0 27.15 5.77c-.856-.436-1.976-.436-4.216-.436H9.067c-2.24 0-3.36 0-4.216.436a3.991 3.991 0 0 0-1.748 1.748c-.436.856-.436 1.976-.436 4.216v8.533c0 2.24 0 3.36.436 4.216a3.996 3.996 0 0 0 1.748 1.748c.856.436 1.976.436 4.216.436z"/></symbol>

</defs>
</svg>
